<svg xmlns="http://www.w3.org/2000/svg" xmlns:xlink="http://www.w3.org/1999/xlink" width="0" height="0" style="display:none;"><symbol viewBox="0 0 24 24" id="ue900-navigation=Home">
<path d="M11.75 10.9999V15.4999H13.25V10.9999H11.75Z" fill="#202224"/>
<path d="M12 0.986328L23.5045 11.445L22.4955 12.5549L20.75 10.9681V20.7495H3.24998V10.9681L1.50449 12.5549L0.495483 11.445L12 0.986328ZM12 3.01352L4.74998 9.60444V19.2495H19.25V9.60442L12 3.01352Z" fill="#202224"/>
</symbol><symbol viewBox="0 0 24 24" id="ue901-navigation=Project">
<path d="M2.25 4.25H10.7631L13.2631 6.25H19.75V12.25H23.8422L18.9191 20.25H3.5C2.80964 20.25 2.25 19.6904 2.25 19V4.25ZM18.25 12.25V7.75H12.7369L10.2369 5.75H3.75V17.083L6.56922 12.25H18.25ZM4.51411 18.75H18.0809L21.1578 13.75H7.43078L4.51411 18.75Z" fill="#202224"/>
</symbol><symbol viewBox="0 0 24 24" id="ue902-navigation=to-do">
<path d="M19 3.5C19.8284 3.5 20.5 4.17157 20.5 5V19C20.5 19.8284 19.8284 20.5 19 20.5H5C4.17157 20.5 3.5 19.8284 3.5 19V5C3.5 4.17157 4.17157 3.5 5 3.5H19ZM5 2C3.34315 2 2 3.34315 2 5V19C2 20.6569 3.34315 22 5 22H19C20.6569 22 22 20.6569 22 19V5C22 3.34315 20.6569 2 19 2H5Z" fill="#202224"/>
<path d="M17.5303 8.53033L10 16.0607L6.46967 12.5303L7.53033 11.4697L10 13.9393L16.4697 7.46967L17.5303 8.53033Z" fill="#202224"/>
</symbol><symbol viewBox="0 0 24 24" id="ue903-navigation=Insight">
<path d="M12 3.75C8.80838 3.75 6.03875 5.56218 4.66624 8.21721C4.47603 8.58517 4.02354 8.72925 3.65559 8.53904C3.28763 8.34883 3.14354 7.89634 3.33376 7.52839C4.9537 4.39471 8.22576 2.25 12 2.25C12.8868 2.25 13.7471 2.36859 14.5653 2.59119L15.1184 2.74167V3.31489C15.1184 3.78449 15.1064 4.50277 15.0698 5.1333C15.0516 5.44651 15.0265 5.75344 14.991 6.00229C14.9735 6.12503 14.951 6.25231 14.92 6.36661C14.9045 6.42366 14.883 6.49248 14.8521 6.5627C14.8257 6.62277 14.7694 6.73867 14.6619 6.84612C14.5188 6.9892 14.3378 7.06613 14.2679 7.09583L14.2658 7.0967C14.1676 7.13845 14.053 7.17936 13.9546 7.21451L13.9535 7.21491C13.7384 7.29173 13.5309 7.36583 13.342 7.46029C13.1473 7.55764 13.0417 7.64387 12.9941 7.70564C12.9699 7.73719 12.9581 7.75587 12.9723 7.8266C13.068 8.30532 13.3195 8.86911 13.6067 9.31296C13.6538 9.38581 13.7 9.45248 13.7445 9.51264C13.7617 9.47476 13.7794 9.43564 13.7977 9.39495C13.8522 9.27424 13.9129 9.1398 13.9873 8.98347C14.1371 8.66903 14.3371 8.28189 14.5965 7.9861C14.8541 7.69245 15.3285 7.3222 15.9714 7.48292C16.4578 7.60452 16.7604 7.91649 16.924 8.2772C17.0536 8.5629 17.0952 8.88462 17.1212 9.08624C17.1226 9.09689 17.124 9.1072 17.1253 9.11715C17.158 9.36765 17.1789 9.49664 17.2169 9.59017C17.2371 9.6397 17.2453 9.64303 17.2618 9.64971L17.2667 9.65171C17.3119 9.67089 17.459 9.70422 17.7483 9.70269C18.0176 9.70126 18.3412 9.67087 18.689 9.62008C19.0787 9.56316 19.4781 9.48375 19.833 9.40253C19.2478 7.63684 18.0812 6.13416 16.5587 5.12272C16.2137 4.89352 16.1198 4.42802 16.349 4.08299C16.5782 3.73797 17.0437 3.64408 17.3887 3.87328C19.4213 5.22355 20.9193 7.31714 21.4934 9.76903L21.6568 10.4666L20.9674 10.6617C20.4699 10.8024 19.6794 10.9914 18.9057 11.1043C18.5193 11.1608 18.1206 11.2007 17.7563 11.2027C17.4121 11.2045 17.0144 11.1741 16.6807 11.0325C16.2269 10.8399 15.9683 10.5015 15.8275 10.1553C15.7095 9.86525 15.6688 9.5506 15.6424 9.34596C15.6408 9.33411 15.6394 9.32263 15.6379 9.31155C15.6283 9.23818 15.6198 9.17748 15.6119 9.12685C15.5301 9.25271 15.4406 9.42052 15.3416 9.62837C15.2977 9.72065 15.2477 9.83067 15.1955 9.94536C15.1037 10.1474 15.0053 10.3638 14.922 10.5232C14.8522 10.6566 14.7603 10.8173 14.6448 10.9531C14.5533 11.0608 14.3015 11.3289 13.8947 11.3289C13.6553 11.3289 13.4571 11.2426 13.3238 11.166C13.1838 11.0856 13.0589 10.9835 12.9516 10.8812C12.7368 10.6763 12.5304 10.4108 12.3473 10.1278C11.9832 9.5651 11.6425 8.82626 11.5014 8.12077C11.3971 7.59939 11.5334 7.14439 11.8052 6.79107C12.0537 6.46798 12.3922 6.25815 12.6712 6.11865C12.9427 5.98288 13.2243 5.88243 13.4224 5.81177C13.4318 5.80842 13.441 5.80514 13.4501 5.80192C13.4705 5.79463 13.4895 5.7878 13.5073 5.78139C13.5335 5.59457 13.5553 5.33951 13.5723 5.04628C13.5938 4.67695 13.6064 4.27058 13.6129 3.90743C13.0918 3.80421 12.5525 3.75 12 3.75ZM13.7135 5.70008C13.7135 5.70008 13.7107 5.70189 13.7035 5.70533C13.7097 5.70177 13.7135 5.70008 13.7135 5.70008ZM9.14851 10.6876C9.14021 10.6871 9.12783 10.6871 9.11024 10.6883C8.92523 10.7009 8.81913 10.7207 8.76108 10.7368C8.75527 10.764 8.74832 10.805 8.74236 10.8641C8.72674 11.0192 8.72368 11.2244 8.72368 11.5263C8.72368 13.1247 7.44053 14.1711 6.31579 14.1711C6.00511 14.1711 5.69882 14.0899 5.43795 13.885C5.19072 13.6907 5.05314 13.4385 4.96812 13.2259C4.8842 13.0161 4.82902 12.7858 4.78431 12.5846C4.76923 12.5167 4.75515 12.4513 4.74124 12.3867C4.71014 12.2421 4.67988 12.1015 4.64125 11.9468C4.63903 11.9414 4.62212 11.9056 4.5494 11.8448C4.45845 11.7688 4.31839 11.6865 4.1313 11.6081C4.01404 11.5589 3.89001 11.516 3.76615 11.4792C3.75544 11.6513 3.75 11.825 3.75 12C3.75 15.2286 5.60442 18.0253 8.30966 19.3808C8.67999 19.5664 8.82978 20.017 8.64422 20.3873C8.45867 20.7577 8.00804 20.9074 7.63771 20.7219C4.4446 19.122 2.25 15.8179 2.25 12C2.25 11.477 2.29125 10.9631 2.37081 10.4615L2.48363 9.75019L3.19889 9.83405C3.58557 9.87939 4.17435 9.99947 4.71157 10.2248C4.98085 10.3378 5.26691 10.4895 5.51168 10.6942C5.75653 10.8989 5.99812 11.1896 6.09603 11.5813C6.14118 11.7619 6.18007 11.9425 6.21325 12.0966C6.22584 12.1551 6.23761 12.2098 6.24859 12.2592C6.29262 12.4573 6.32623 12.5822 6.36068 12.6684C6.66958 12.6341 7.22368 12.2592 7.22368 11.5263C7.22368 11.2361 7.22551 10.956 7.24992 10.7138C7.27406 10.4742 7.3263 10.1935 7.47712 9.93645C7.82736 9.33941 8.47116 9.22851 9.00782 9.19178C9.45666 9.16106 9.8677 9.29445 10.1801 9.59494C10.4694 9.87321 10.6093 10.2324 10.6777 10.5468C10.8129 11.1678 10.7291 11.8865 10.596 12.4187C10.5439 12.6271 10.4858 12.8118 10.4378 12.9646L10.4336 12.9778C10.3823 13.1408 10.3464 13.2572 10.3219 13.3663C10.284 13.5351 10.277 13.6685 10.3275 13.8442C10.4443 14.0582 10.5804 14.1764 10.7817 14.3515C10.8408 14.4028 10.9054 14.459 10.9769 14.524C11.128 14.6614 11.3337 14.866 11.4638 15.1618C11.6026 15.4772 11.6227 15.8163 11.5512 16.1734C11.4897 16.4812 11.3626 16.7997 11.2638 17.0472C11.2412 17.104 11.22 17.157 11.2015 17.2054C11.0872 17.503 11.0127 17.7502 11.0027 18.0091C10.9861 18.4419 11.1464 19.1349 12.2921 20.2449C16.7132 20.0911 20.25 16.4586 20.25 12C20.25 11.5858 20.5858 11.25 21 11.25C21.4142 11.25 21.75 11.5858 21.75 12C21.75 17.3848 17.3848 21.75 12 21.75H11.7083L11.4932 21.5529C9.99186 20.1766 9.46227 19.0324 9.50384 17.9514C9.52349 17.4405 9.67099 17.0069 9.80102 16.668C9.83662 16.5752 9.86902 16.4933 9.89826 16.4193C9.98801 16.1924 10.0481 16.0404 10.0804 15.8792C10.0939 15.8114 10.0923 15.7776 10.0903 15.7649C10.0888 15.762 10.0835 15.7531 10.0703 15.7371C10.0508 15.7134 10.0202 15.6814 9.96786 15.6339C9.93956 15.6082 9.9042 15.5782 9.86346 15.5436C9.63304 15.3481 9.23062 15.0067 8.96076 14.467L8.93692 14.4193L8.92007 14.3688C8.75033 13.8595 8.76952 13.4334 8.85834 13.0377C8.89835 12.8595 8.9531 12.6855 9.00048 12.5348L9.00273 12.5277C9.05307 12.3677 9.09969 12.2194 9.14081 12.0549C9.2446 11.6398 9.27919 11.1743 9.21204 10.8659C9.18915 10.7607 9.16195 10.7086 9.14851 10.6876Z" fill="#202224"/>
</symbol><symbol viewBox="0 0 24 24" id="ue904-navigation=Notification">
<path d="M12 2.25C11.1709 2.25 10.5 2.9209 10.5 3.75C10.5 3.81445 10.5146 3.87598 10.5234 3.9375C7.93066 4.59961 6 6.95508 6 9.75V16.5C6 16.9248 5.6748 17.25 5.25 17.25H4.5V18.75H9.89062C9.80566 18.9873 9.75 19.2363 9.75 19.5C9.75 20.7334 10.7666 21.75 12 21.75C13.2334 21.75 14.25 20.7334 14.25 19.5C14.25 19.2363 14.1943 18.9873 14.1094 18.75H19.5V17.25H18.75C18.3252 17.25 18 16.9248 18 16.5V9.96094C18 7.14258 16.1162 4.62891 13.4766 3.9375C13.4854 3.87598 13.5 3.81445 13.5 3.75C13.5 2.9209 12.8291 2.25 12 2.25ZM11.6719 5.25C11.7803 5.24121 11.8887 5.25 12 5.25C12.0469 5.25 12.0938 5.25 12.1406 5.25C14.5898 5.32324 16.5 7.4707 16.5 9.96094V16.5C16.5 16.7637 16.5557 17.0127 16.6406 17.25H7.35938C7.44434 17.0127 7.5 16.7637 7.5 16.5V9.75C7.5 7.36816 9.33398 5.41992 11.6719 5.25ZM12 18.75C12.4219 18.75 12.75 19.0781 12.75 19.5C12.75 19.9219 12.4219 20.25 12 20.25C11.5781 20.25 11.25 19.9219 11.25 19.5C11.25 19.0781 11.5781 18.75 12 18.75Z" fill="#202224"/>
</symbol><symbol viewBox="0 0 24 24" id="ue905-Property 1=1--Property-1=1">
<path fill-rule="evenodd" clip-rule="evenodd" d="M12 0.828461L18.6013 8.75H15.2282L18.3532 13.75H15.8532L18.3532 17.75H12.75V19.75H21V21.25H3V19.75H11.25V17.75H5.64681L8.14681 13.75H5.64681L8.77181 8.75H5.39872L12 0.828461ZM15.3987 7.25L12 3.17154L8.60128 7.25H15.3987ZM10.5407 8.75L8.35319 12.25H15.6468L13.4593 8.75H10.5407ZM9.91569 13.75L8.35319 16.25H15.6468L14.0843 13.75H9.91569Z" fill="#202224"/>
</symbol><symbol viewBox="0 0 24 24" id="ue906-Property 1=2--Property-1=2">
<path d="M12 0.402435L12.3976 0.651037C15.0098 2.28427 16.75 5.18832 16.75 8.49941C16.75 9.09794 16.6931 9.68317 16.5845 10.25H23.719L23.5563 11.1355C22.6705 15.9579 18.8417 19.7503 14 20.5805V19.055C17.803 18.3027 20.8503 15.4466 21.8771 11.75H14V10.25H15.0515C15.1814 9.6874 15.25 9.10141 15.25 8.49941C15.25 5.89804 13.9688 3.59541 12 2.18887C10.0312 3.59541 8.75 5.89804 8.75 8.49941C8.75 9.10141 8.81861 9.6874 8.94848 10.25H10V11.75H2.12292C3.14975 15.4466 6.19703 18.3027 10 19.0549V20.5805C5.15837 19.7503 1.32955 15.9579 0.443739 11.1355L0.281086 10.25H7.41546C7.30686 9.68317 7.25 9.09794 7.25 8.49941C7.25 5.18832 8.99023 2.28427 11.6024 0.651037L12 0.402435Z" fill="#202224"/>
<path d="M11.25 15.7865V6.99999H12.75V15.7865L17.6646 13.3292L18.3354 14.6708L12.75 17.4635V23H11.25V17.4635L5.66459 14.6708L6.33541 13.3292L11.25 15.7865Z" fill="#202224"/>
</symbol><symbol viewBox="0 0 24 24" id="ue907-Property 1=3--Property-1=3">
<g clip-path="url(#clip0_2_1907)">
<path d="M12.75 17.2475C6.09992 17.1144 0.75 11.682 0.75 5C0.75 4.08733 0.849938 3.19713 1.03976 2.34004L1.16737 1.76383L1.75743 1.75236C1.83811 1.75079 1.91897 1.75 2 1.75C8.76549 1.75 14.25 7.23451 14.25 14C14.25 14.3309 14.2369 14.6589 14.2111 14.9834C14.2365 15.1581 14.25 15.3306 14.25 15.5V23.5H12.75V17.2475ZM2.25 5C2.25 10.8063 6.85334 15.5375 12.6095 15.743C12.647 15.513 12.6772 15.2804 12.6999 15.0456C12.6002 14.5565 12.3514 13.9557 11.9478 13.2718C11.4201 12.3776 10.6754 11.421 9.82671 10.5117C8.97942 9.60393 8.04325 8.759 7.14375 8.08437C6.23446 7.4024 5.40275 6.92482 4.76283 6.71151L5.23717 5.28849C6.09725 5.57518 7.07804 6.1601 8.04375 6.88438C9.01925 7.616 10.0206 8.52107 10.9233 9.48826C11.451 10.0537 11.9501 10.6458 12.3931 11.2426C11.2075 6.76224 7.2017 3.42874 2.39048 3.25696C2.29809 3.82389 2.25 4.40609 2.25 5Z" fill="#202224"/>
<path d="M14.7935 18.0275C14.7647 17.7443 14.75 17.4571 14.75 17.1667C14.75 12.5183 18.5182 8.75 23.1666 8.75C23.2223 8.75 23.2778 8.75054 23.3333 8.75162L23.9233 8.7631L24.0509 9.33932C24.1814 9.9283 24.25 10.5398 24.25 11.1665C24.25 15.6752 20.7048 19.3559 16.25 19.5731V23.5H14.75V18.4714C14.75 18.3243 14.7653 18.1759 14.7935 18.0275ZM22.692 10.266C19.7991 10.4621 17.3942 12.4369 16.5622 15.1056C16.7624 14.8898 16.9723 14.6776 17.1882 14.4716C18.4559 13.2621 20.0594 12.1453 21.2866 11.781L21.7134 13.219C20.823 13.4833 19.4264 14.4093 18.2236 15.5569C17.6335 16.1199 17.1225 16.706 16.7649 17.2456C16.5508 17.5686 16.4129 17.8433 16.3343 18.0654C19.9204 17.8087 22.75 14.8181 22.75 11.1665C22.75 10.8611 22.7302 10.5605 22.692 10.266Z" fill="#202224"/>
</g>
<defs>
<clipPath id="clip0_2_1907">
<rect width="24" height="24" fill="white"/>
</clipPath>
</defs>
</symbol><symbol viewBox="0 0 24 24" id="ue908-Property 1=4--Property-1=4">
<path d="M12.7855 5.0952C12.7855 4.35522 13.1615 3.45514 14.0041 2.87183C14.7524 2.35377 15.9551 2.03023 17.7518 2.42626C17.6696 3.34041 17.384 4.12531 16.872 4.80792C16.2485 5.63937 15.243 6.38043 13.7044 6.9959L14.2614 8.38862C15.9685 7.70579 17.235 6.82399 18.0721 5.70789C18.9161 4.58242 19.2769 3.28062 19.2769 1.84947V1.28375L18.733 1.12833C16.3044 0.434465 14.4353 0.748925 13.1503 1.63855C12.3176 2.21499 11.7741 3.00501 11.4992 3.8216C11.3925 3.74765 11.2796 3.67802 11.1606 3.6133C10.112 3.04248 8.61546 2.84982 6.67791 3.28507L6.09229 3.41663V4.01684C6.09229 5.01275 6.41707 5.91682 7.14348 6.67837C7.84888 7.41791 8.89046 7.979 10.2525 8.40736L10.7025 6.97645C9.46798 6.5882 8.69195 6.12852 8.22889 5.64306C7.936 5.33599 7.75176 5.00183 7.66078 4.62581C8.99246 4.42776 9.89054 4.62977 10.4435 4.93077C11.0878 5.28145 11.2855 5.76496 11.2855 6.05838V13.1969C10.2604 12.5839 9.25784 12.1263 8.27121 11.7866C5.6938 10.899 3.28085 10.8369 1 10.8369V12.3369C3.26317 12.3369 5.45915 12.4046 7.7828 13.2048C8.73315 13.5321 9.71429 13.9855 10.7338 14.6171C10.2056 15.0335 9.67077 15.4947 9.12842 16.0056C8.84125 15.8872 8.55557 15.7795 8.27121 15.6815C5.6938 14.7939 3.28085 14.7319 1 14.7319V16.2319C3.26317 16.2319 5.45915 16.2996 7.7828 17.0998C10.0954 17.8962 12.5903 19.4395 15.3775 22.4801L16.4832 21.4665C15.4058 20.2911 14.3591 19.3177 13.3374 18.5124C14.3569 17.8808 15.3379 17.4274 16.2882 17.1002C18.6118 16.3 20.8078 16.2322 23.071 16.2322V14.7322C20.7901 14.7322 18.3772 14.7943 15.7998 15.6819C14.5739 16.1041 13.3234 16.7081 12.0358 17.5661C11.5491 17.2418 11.0678 16.9538 10.591 16.6981C12.6306 14.8674 14.5131 13.8161 16.2881 13.2048C18.6117 12.4046 20.8077 12.3369 23.0709 12.3369V10.8369C20.79 10.8369 18.3771 10.899 15.7997 11.7866C14.8131 12.1263 13.8105 12.5839 12.7855 13.1969V5.0952Z" fill="#202224"/>
</symbol><symbol viewBox="0 0 24 24" id="ue909-Property 1=5--Property-1=5">
<path d="M12 1.25C10.4812 1.25 9.25 2.48122 9.25 4V18C9.25 19.2588 10.0957 20.32 11.25 20.6465V22H12.75V20.6465C13.9043 20.32 14.75 19.2588 14.75 18V4C14.75 2.48122 13.5188 1.25 12 1.25ZM12.75 19.0001L12.75 7H11.25L11.25 19.0001C10.9464 18.772 10.75 18.409 10.75 18V4C10.75 3.30964 11.3096 2.75 12 2.75C12.6904 2.75 13.25 3.30964 13.25 4V18C13.25 18.409 13.0536 18.772 12.75 19.0001Z" fill="#202224"/>
<path d="M5 4.25C3.48122 4.25 2.25 5.48122 2.25 7V18C2.25 19.2588 3.09575 20.32 4.25 20.6465V22H5.75V20.6465C6.90425 20.32 7.75 19.2588 7.75 18V7C7.75 5.48122 6.51878 4.25 5 4.25ZM5.75 11H4.25L4.25 19.0001C3.94639 18.772 3.75 18.409 3.75 18V7C3.75 6.30964 4.30964 5.75 5 5.75C5.69036 5.75 6.25 6.30964 6.25 7V18C6.25 18.409 6.05361 18.772 5.75 19.0001L5.75 11Z" fill="#202224"/>
<path d="M16.25 13C16.25 11.4812 17.4812 10.25 19 10.25C20.5188 10.25 21.75 11.4812 21.75 13V18C21.75 19.2588 20.9043 20.32 19.75 20.6465V22.5H18.25V20.6465C17.0957 20.32 16.25 19.2588 16.25 18V13ZM19.75 19.0001C20.0536 18.772 20.25 18.409 20.25 18V13C20.25 12.3096 19.6904 11.75 19 11.75C18.3096 11.75 17.75 12.3096 17.75 13V18C17.75 18.409 17.9464 18.772 18.25 19.0001V14.5H19.75V19.0001Z" fill="#202224"/>
</symbol><symbol viewBox="0 0 24 24" id="ue90a-Property 1=6--Property-1=6">
<path d="M7.75 6V7.3H6.25V6H7.75Z" fill="#202224"/>
<path d="M3.97138 5.51401C4.19151 4.33171 5.19954 3.4936 6.29789 3.19664C7.58403 2.84891 9.14424 3.17414 10.2557 4.52246L10.2641 4.53278L23.9228 21.7132L15.4148 19.7498H11.4271V21.7498H7.67708V20.2498H9.92708V19.687C6.44104 19.1731 3.92708 15.5767 3.92708 11.4998V9.46323L1.52588e-05 7.49969L3.97138 5.51401ZM15.6771 18.2498V18.2703L15.6879 18.2734L20.0771 19.2863L12.4953 9.74969L5.70806 9.74969C5.86691 10.1464 6.09347 10.5779 6.38867 11.0374C7.02253 12.0241 7.92441 13.0643 8.97427 14.0507C11.0546 16.0053 13.6083 17.6493 15.6077 18.2498H15.6771ZM5.42708 6.99979V8.24969L11.3028 8.24969L9.09427 5.47173C8.38393 4.61364 7.44625 4.44002 6.68938 4.64465C5.88828 4.86124 5.42699 5.43705 5.42699 5.99969V6.99608L5.42708 6.99979ZM10.7882 18.2498H12.046C10.6189 17.4006 9.18906 16.3107 7.94716 15.1439C7.00155 14.2555 6.14491 13.304 5.46881 12.3535C5.80859 15.7925 8.17511 18.2498 10.7882 18.2498ZM3.92699 7.21325L3.35412 7.49969L3.92699 7.78613V7.21325Z" fill="#202224"/>
</symbol><symbol viewBox="0 0 24 24" id="ue90b-Property 1=7--Property-1=7">
<path d="M9.50001 9.25C8.25737 9.25 7.25001 10.2574 7.25001 11.5C7.25001 12.7426 8.25737 13.75 9.50001 13.75C10.7427 13.75 11.75 12.7426 11.75 11.5C11.75 10.2574 10.7427 9.25 9.50001 9.25ZM8.75001 11.5C8.75001 11.0858 9.0858 10.75 9.50001 10.75C9.91422 10.75 10.25 11.0858 10.25 11.5C10.25 11.9142 9.91422 12.25 9.50001 12.25C9.0858 12.25 8.75001 11.9142 8.75001 11.5Z" fill="#202224"/>
<path d="M13.25 13.5C13.25 13.0858 12.9142 12.75 12.5 12.75V11.25C13.7427 11.25 14.75 12.2574 14.75 13.5C14.75 14.7426 13.7427 15.75 12.5 15.75V14.25C12.9142 14.25 13.25 13.9142 13.25 13.5Z" fill="#202224"/>
<path d="M17.75 0.598297L0.647949 11.9997L17.75 23.4011V14.5004L22.09 17.3937V6.59094L17.75 9.48425V0.598297ZM17.75 11.287L20.59 9.39371V14.5909L17.75 12.6976V11.287ZM16.25 20.5983L3.35211 11.9997L16.25 3.40107V20.5983Z" fill="#202224"/>
</symbol><symbol viewBox="0 0 24 24" id="ue90c-Property 1=8--Property-1=8">
<path d="M14.25 11V9H15.75V11H14.25Z" fill="#202224"/>
<path d="M18.2713 0.70517L19.1921 2.62437C19.7764 3.84221 20.125 5.15713 20.222 6.4998H20.5V23.4998H7.76234L10.7623 16.1955H10.6957C6.16932 16.1955 2.5 12.5261 2.5 7.9998V6.4998H11.5342C11.9733 4.10596 13.4126 2.62186 14.4977 1.50289L15.2713 0.70517L16.1921 2.62437C16.2252 2.69325 16.2575 2.76243 16.289 2.83192C16.6967 2.32892 17.1188 1.89364 17.4977 1.50289L18.2713 0.70517ZM15.276 4.35159C15.1578 3.99654 15.0178 3.64813 14.8565 3.30841C14.0843 4.16795 13.3749 5.15424 13.0653 6.4998H14.5342C14.6835 5.68564 14.9486 4.97672 15.276 4.35159ZM6.75 7.9998V10.7498H4.58899C5.63826 13.0762 7.97786 14.6955 10.6957 14.6955H13L11.2462 18.9656H19V14.6955V7.9998H6.75ZM18.7175 6.4998C18.6246 5.39494 18.3336 4.31368 17.8565 3.30841C17.0843 4.16795 16.3749 5.15424 16.0653 6.4998H18.7175ZM19 20.4656H10.6301L10 21.9998H19V20.4656ZM4.11648 9.2498H5.25V7.9998H4C4 8.427 4.04001 8.84484 4.11648 9.2498Z" fill="#202224"/>
</symbol><symbol viewBox="0 0 24 24" id="ue90d-Property 1=9--Property-1=9">
<path d="M13.3047 1.5C15.6924 1.50003 17.6287 3.43557 17.6289 5.82324V6.80469L17.7256 7.2373C18.7082 8.02486 20.3921 9.60223 20.8574 11.9287L21.0371 12.8262H19.5615C19.8141 13.097 20.072 13.3966 20.3193 13.7168C21.05 14.6629 21.7712 15.8708 22.0723 17.125L22.2939 18.0498H20.8887C21.3037 18.4765 21.6556 18.9688 21.9443 19.4482C22.6019 20.5401 23.0496 21.7497 23.2656 22.543L23.5234 23.4902H21.3906L21.3926 23.5H8.41699V13.2305L5.76172 13.5986C3.60884 13.8969 1.56186 12.6146 0.87793 10.5723L0.81543 10.3721L0.400391 8.91016L0 7.50488L1.39551 7.06836L11.7275 3.83691L11.8047 3.8125V1.5H13.3047ZM13.3047 5.26855H12.1758L4.19922 7.7627L5.08691 9.98242L3.69434 10.5391L2.7627 8.21191L1.84277 8.5L2.25879 9.96191C2.64248 11.3107 3.90246 12.2018 5.2793 12.1387L5.55566 12.1123L9.91699 11.5088V11.5684L9.94238 11.5498C11.1106 13.1074 12.6504 12.8355 13.2432 12.5391L13.9131 13.8809C13.1082 14.2831 11.4385 14.599 9.91699 13.5811V22H14.1436L13.5977 17.083L15.0879 16.917L15.6533 22H19.5166L17.4785 12.958C17.4669 12.9504 17.4562 12.9424 17.4453 12.9355L17.4658 12.9023L16.1289 6.9707V5.82324C16.1287 4.264 14.864 3.00003 13.3047 3V5.26855ZM20.9805 21.6699L21.0527 21.9902H21.5059C21.2942 21.4324 21.0093 20.803 20.6592 20.2217C20.6566 20.2174 20.653 20.2133 20.6504 20.209L20.9805 21.6699ZM19.8252 16.5498H20.293C20.0845 16.0739 19.8129 15.6022 19.5107 15.1572L19.8252 16.5498ZM18.6475 11.3262H19.1123C18.9114 10.831 18.6421 10.3856 18.3467 9.99023L18.6475 11.3262ZM11.7959 9.05078H10.2959V7.84082H11.7959V9.05078Z" fill="#202224"/>
</symbol><symbol viewBox="0 0 24 24" id="ue90e-Property 1=10--Property-1=10">
<path d="M6.0098 0.98143C7.87508 1.60319 9.05304 2.57327 9.73539 3.85252C10.2961 4.90379 10.4823 6.09878 10.5274 7.32811C11.8495 7.54969 13.9028 8.35854 15.545 10.4111C16.5831 11.7088 17.0899 13.44 17.3233 15.0039C17.5584 16.5797 17.529 18.0805 17.4268 19.001L15.9366 18.8349C16.0256 18.0329 16.0534 16.6623 15.8389 15.2246C15.6225 13.7745 15.1721 12.3473 14.3731 11.3486C12.6918 9.24708 10.5437 8.75901 9.79203 8.75877H9.04203V8.00877C9.04199 6.60469 8.89643 5.46679 8.41215 4.55858C8.05479 3.88864 7.4821 3.28988 6.5225 2.80956V4.56444H5.0225V3.65428C5.01835 3.6562 5.0141 3.6581 5.0098 3.66014C4.88661 3.71881 4.74667 3.80893 4.61723 3.92284C4.33539 4.17095 4.22562 4.41364 4.22562 4.56541C4.22537 5.35542 3.73497 5.93047 3.30375 6.28123C2.96597 6.55596 2.58526 6.75871 2.26762 6.89256C2.23747 7.01476 2.22154 7.26818 2.42484 7.67479C2.51169 7.84763 2.77936 8.05519 3.29301 8.2119C3.77211 8.35798 4.29906 8.40815 4.62406 8.40819H5.585L5.3516 9.34081C5.26785 9.67611 5.16109 10.287 5.12992 10.9726C5.09846 11.6659 5.14767 12.3755 5.33598 12.9404C5.51548 13.4785 5.95618 14.1028 6.49809 14.6953C7.0285 15.2751 7.59679 15.761 7.94535 16.0224L8.30961 16.2959L8.23539 16.7461L7.93949 18.5195C7.71836 19.8452 6.57061 20.8172 5.2266 20.8174H4.9766C4.56243 20.8174 4.22667 21.1532 4.2266 21.5674V21.6142H6.50004V23.1142H2.7266V21.5674C2.72667 20.3248 3.734 19.3174 4.9766 19.3174H5.2266C5.83722 19.3172 6.35926 18.8756 6.46 18.2734L6.68266 16.9355C6.30171 16.62 5.83557 16.1932 5.39164 15.708C4.8048 15.0664 4.19316 14.2545 3.91312 13.415C3.64222 12.6023 3.59547 11.6844 3.6309 10.9043C3.64823 10.5231 3.68609 10.1598 3.73246 9.83788C3.45104 9.79665 3.14989 9.73623 2.85551 9.64647C2.24083 9.45894 1.45602 9.09091 1.08305 8.34569C0.505897 7.19139 0.764745 6.21679 1.22367 5.7578L1.34867 5.63182L1.51664 5.57616C1.73791 5.50235 2.0828 5.33972 2.35648 5.11717C2.64232 4.88468 2.72536 4.69366 2.72562 4.56541C2.72562 3.79859 3.19135 3.18023 3.62699 2.79686C3.85626 2.59512 4.11086 2.42638 4.3643 2.30565C4.55824 2.21331 4.7861 2.13197 5.0225 2.1035V0.652328L6.0098 0.98143ZM19.7911 5.6162C20.7982 5.11279 21.7543 5.65335 22.1866 6.30174C22.4085 6.63476 22.5531 7.07323 22.4825 7.53221C22.4066 8.02432 22.0972 8.43718 21.6104 8.68065C20.6967 9.13749 19.7514 10.0401 19.2168 11.4111L19.1153 11.6924C18.7977 12.6458 19.0702 13.6269 19.5079 14.8799C19.8894 15.972 20.4164 17.3072 20.2901 18.709L20.2559 18.9902L20.2071 19.3115C19.8705 21.4985 17.9881 23.1139 15.7754 23.1142H7.31937V21.5674C7.31937 20.3581 8.2734 19.3744 9.46977 19.3223C9.22481 18.9097 9.0718 18.4359 9.04594 17.9277L9.04203 17.7705V17.4834C9.04209 15.6423 10.5349 14.1494 12.376 14.1494H12.6631V15.6494H12.376C11.3633 15.6494 10.5421 16.4707 10.542 17.4834V17.7705C10.5422 18.6246 11.2348 19.3174 12.0889 19.3174V20.8174H9.56938C9.15516 20.8174 8.81938 21.1532 8.81938 21.5674V21.6142H15.7754C17.2477 21.6139 18.5007 20.5392 18.7246 19.084L18.7735 18.7617L18.7979 18.5644C18.8867 17.5771 18.5149 16.5853 18.0918 15.374C17.6713 14.17 17.1921 12.7191 17.6924 11.2178L17.8204 10.8652C18.4927 9.14162 19.7003 7.95846 20.9395 7.33885C20.9663 7.32542 20.9831 7.31398 20.9922 7.30663C20.9956 7.30385 20.9973 7.30053 20.9991 7.29881C20.9994 7.28076 20.9957 7.21971 20.9385 7.13377C20.876 7.03998 20.7853 6.97 20.7002 6.93944C20.6292 6.91407 20.5546 6.91174 20.462 6.95799C19.9148 7.23157 19.4765 7.48835 19.0537 7.93651C18.6256 8.39047 18.1751 9.08393 17.6973 10.2783L17 9.99998L16.3038 9.72166C16.8258 8.41661 17.3643 7.54092 17.962 6.90721C18.5652 6.26774 19.19 5.91674 19.7911 5.6162Z" fill="#202224"/>
</symbol><symbol viewBox="0 0 24 24" id="ue90f-navigation=shouqi">
<path d="M17.5 1.5V22.5H14.5V13.5H10.5V18.207L4.29297 12L10.5 5.79297V10.5H14.5V1.5H17.5Z" fill="#202224" stroke="white"/>
</symbol><symbol viewBox="0 0 24 24" id="ue910-navigation=More">
<path d="M15.25 12C15.25 11.569 15.4212 11.1557 15.726 10.851C16.0307 10.5462 16.444 10.375 16.875 10.375C17.306 10.375 17.7193 10.5462 18.024 10.851C18.3288 11.1557 18.5 11.569 18.5 12C18.5 12.431 18.3288 12.8443 18.024 13.149C17.7193 13.4538 17.306 13.625 16.875 13.625C16.444 13.625 16.0307 13.4538 15.726 13.149C15.4212 12.8443 15.25 12.431 15.25 12ZM10.375 12C10.375 11.569 10.5462 11.1557 10.851 10.851C11.1557 10.5462 11.569 10.375 12 10.375C12.431 10.375 12.8443 10.5462 13.149 10.851C13.4538 11.1557 13.625 11.569 13.625 12C13.625 12.431 13.4538 12.8443 13.149 13.149C12.8443 13.4538 12.431 13.625 12 13.625C11.569 13.625 11.1557 13.4538 10.851 13.149C10.5462 12.8443 10.375 12.431 10.375 12ZM5.5 12C5.5 11.569 5.6712 11.1557 5.97595 10.851C6.2807 10.5462 6.69402 10.375 7.125 10.375C7.55598 10.375 7.9693 10.5462 8.27405 10.851C8.5788 11.1557 8.75 11.569 8.75 12C8.75 12.431 8.5788 12.8443 8.27405 13.149C7.9693 13.4538 7.55598 13.625 7.125 13.625C6.69402 13.625 6.2807 13.4538 5.97595 13.149C5.6712 12.8443 5.5 12.431 5.5 12Z" fill="#202224"/>
</symbol><symbol viewBox="0 0 24 24" id="ue911-navigation=Edit">
<path fill-rule="evenodd" clip-rule="evenodd" d="M12.9326 6.2245L17.7941 11.086L7.3568 21.5043L2.4999 21.4997L2.49533 16.6428L12.9326 6.2245ZM3.99592 17.2636L3.99849 20.0011L6.73606 20.0037L15.6728 11.086L12.9326 8.34582L3.99592 17.2636Z" fill="#202224"/>
<path fill-rule="evenodd" clip-rule="evenodd" d="M12.9326 6.2245L17.7941 11.086L7.3568 21.5043L2.4999 21.4997L2.49533 16.6428L12.9326 6.2245ZM3.99592 17.2636L3.99849 20.0011L6.73606 20.0037L15.6728 11.086L12.9326 8.34582L3.99592 17.2636Z" fill="#202224"/>
<path d="M13.4931 14.5528L9.4463 10.506L10.507 9.44534L14.5538 13.4922L13.4931 14.5528Z" fill="#202224"/>
<path d="M21.4999 21.4997H12V19.9997H19.9999V3.99972H3.99994V9.99972H2.49994V2.49972L21.4999 2.49972V21.4997Z" fill="#202224"/>
</symbol><symbol viewBox="0 0 24 24" id="ue912-navigation=share">
<path d="M18 16.08C17.24 16.08 16.56 16.38 16.04 16.85L8.91 12.7C8.96 12.47 9 12.24 9 12C9 11.76 8.96 11.53 8.91 11.3L15.96 7.19C16.5 7.69 17.21 8 18 8C19.66 8 21 6.66 21 5C21 3.34 19.66 2 18 2C16.34 2 15 3.34 15 5C15 5.24 15.04 5.47 15.09 5.7L8.04 9.81C7.5 9.31 6.79 9 6 9C4.34 9 3 10.34 3 12C3 13.66 4.34 15 6 15C6.79 15 7.5 14.69 8.04 14.19L15.16 18.34C15.11 18.55 15.08 18.77 15.08 19C15.08 20.61 16.39 21.91 18 21.91C19.61 21.91 20.92 20.61 20.92 19C20.92 17.39 19.61 16.08 18 16.08ZM18 4C18.55 4 19 4.45 19 5C19 5.55 18.55 6 18 6C17.45 6 17 5.55 17 5C17 4.45 17.45 4 18 4ZM6 13C5.45 13 5 12.55 5 12C5 11.45 5.45 11 6 11C6.55 11 7 11.45 7 12C7 12.55 6.55 13 6 13ZM18 20C17.45 20 17 19.55 17 19C17 18.45 17.45 18 18 18C18.55 18 19 18.45 19 19C19 19.55 18.55 20 18 20Z" fill="#202224"/>
</symbol><symbol viewBox="0 0 24 24" id="ue913-navigation=export">
<path d="M13.5 2.49995V3.99995H4.00006V20H13.5V21.5H2.50006L2.50006 2.49995H13.5Z" fill="#202224"/>
<path fill-rule="evenodd" clip-rule="evenodd" d="M12.5 9V2.49995H14V9H12.5Z" fill="#202224"/>
<path fill-rule="evenodd" clip-rule="evenodd" d="M12.5 21.5004V15H14V21.5004H12.5Z" fill="#202224"/>
<path fill-rule="evenodd" clip-rule="evenodd" d="M21.0104 12.0711L16.4697 7.53033L17.5303 6.46967L23.1317 12.0711L17.5303 17.6725L16.4697 16.6118L21.0104 12.0711Z" fill="#202224"/>
<path fill-rule="evenodd" clip-rule="evenodd" d="M22 12.75H7V11.25H22V12.75Z" fill="#202224"/>
</symbol><symbol viewBox="0 0 24 24" id="ue914-navigation=Delete">
<path d="M13 16V9H14.5V16H13Z" fill="#202224"/>
<path d="M9.5 9V16H11V9H9.5Z" fill="#202224"/>
<path d="M9 2V3H2V4.5H4.5V21H19.5V4.5H22V3H15V2H9ZM18 4.5V19.5H6V4.5H18Z" fill="#202224"/>
</symbol><symbol viewBox="0 0 24 24" id="ue915-navigation=Insight-2">
<path d="M1.29949 9.43987C1.10368 10.2613 1 11.1186 1 12C1 17.8706 5.59879 22.667 11.3904 22.9834C10.5604 21.943 10.4255 21.2324 10.4442 20.7469C10.4588 20.3703 10.5677 20.0105 10.7345 19.5775C10.7616 19.5072 10.7925 19.43 10.8256 19.3475C10.9698 18.9873 11.1555 18.5238 11.2454 18.076C11.3498 17.5563 11.3205 17.063 11.1177 16.604C10.9276 16.1738 10.6272 15.876 10.4065 15.6761C10.3022 15.5817 10.2079 15.5 10.1217 15.4253C9.82758 15.1707 9.62854 14.9983 9.45785 14.6869C9.38415 14.4314 9.39436 14.2373 9.44974 13.9916C9.48551 13.8328 9.53798 13.6635 9.6129 13.4263L9.61896 13.4071C9.68916 13.1849 9.77404 12.9162 9.85014 12.613C10.0445 11.8385 10.167 10.7929 9.96946 9.88926C9.86948 9.43182 9.66518 8.90922 9.24258 8.50434C8.78624 8.06713 8.18582 7.87305 7.53017 7.91775C6.74625 7.97119 5.80582 8.13255 5.2942 9.00124C5.0739 9.3753 4.99759 9.78366 4.96233 10.1322C4.92668 10.4846 4.92401 10.8923 4.92401 11.3145C4.92401 12.3809 4.1146 12.9262 3.66338 12.9763C3.61305 12.8508 3.56396 12.6691 3.49964 12.3808C3.4836 12.3089 3.46641 12.2294 3.44802 12.1443C3.39956 11.9201 3.34272 11.6571 3.27679 11.3944C3.13376 10.8246 2.78087 10.4016 2.42321 10.1037C2.07928 9.81722 1.67954 9.60213 1.29949 9.43987Z" fill="#202224"/>
<path d="M22.9047 10.5459C22.2906 5.89527 18.771 2.16087 14.2293 1.22603C14.2207 1.44968 14.2102 1.67215 14.1977 1.88609C14.1729 2.31273 14.141 2.68383 14.1028 2.95565L14.0191 2.98552L13.9788 2.99987C13.6894 3.10268 13.2781 3.24882 12.8814 3.44637C12.4739 3.64934 11.9795 3.95464 11.6164 4.42474C11.2194 4.93882 11.0203 5.60083 11.1727 6.35944C11.3788 7.38592 11.8764 8.46093 12.4083 9.2797C12.6757 9.69137 12.9772 10.0778 13.291 10.3759C13.4477 10.5247 13.6302 10.6733 13.8347 10.7902C14.0295 10.9016 14.319 11.0273 14.6687 11.0273C15.2629 11.0273 15.6307 10.6372 15.7644 10.4804C15.933 10.2828 16.0673 10.0491 16.1692 9.85496C16.291 9.62311 16.4347 9.30829 16.5687 9.01446C16.6449 8.8476 16.7181 8.68725 16.7822 8.55299C16.9268 8.25057 17.0576 8.0064 17.1771 7.82328C17.1886 7.89695 17.201 7.98526 17.215 8.09202L17.2216 8.14208C17.2602 8.43983 17.3196 8.89765 17.4919 9.31964C17.6976 9.82334 18.0755 10.3158 18.7383 10.596C19.2258 10.8021 19.8067 10.8462 20.3094 10.8436C20.8416 10.8408 21.424 10.7826 21.9885 10.7005C22.2951 10.6559 22.6035 10.6032 22.9047 10.5459Z" fill="#202224"/>
<path d="M3.5 12C3.5 7.30558 7.30558 3.5 12 3.5C16.6944 3.5 20.5 7.30558 20.5 12C20.5 16.6944 16.6944 20.5 12 20.5C7.30558 20.5 3.5 16.6944 3.5 12ZM12 1C5.92487 1 1 5.92487 1 12C1 18.0751 5.92487 23 12 23C18.0751 23 23 18.0751 23 12C23 5.92487 18.0751 1 12 1Z" fill="#202224"/>
</symbol><symbol viewBox="0 0 24 24" id="ue916-navigation=close">
<path d="M12 1.5C6.20156 1.5 1.5 6.20156 1.5 12C1.5 17.7984 6.20156 22.5 12 22.5C17.7984 22.5 22.5 17.7984 22.5 12C22.5 6.20156 17.7984 1.5 12 1.5ZM15.8766 15.9891L14.3297 15.982L12 13.2047L9.67266 15.9797L8.12344 15.9867C8.02031 15.9867 7.93594 15.9047 7.93594 15.7992C7.93594 15.7547 7.95234 15.7125 7.98047 15.6773L11.0297 12.0445L7.98047 8.41406C7.95215 8.37971 7.93643 8.3367 7.93594 8.29219C7.93594 8.18906 8.02031 8.10469 8.12344 8.10469L9.67266 8.11172L12 10.8891L14.3273 8.11406L15.8742 8.10703C15.9773 8.10703 16.0617 8.18906 16.0617 8.29453C16.0617 8.33906 16.0453 8.38125 16.0172 8.41641L12.9727 12.0469L16.0195 15.6797C16.0477 15.7148 16.0641 15.757 16.0641 15.8016C16.0641 15.9047 15.9797 15.9891 15.8766 15.9891Z" fill="#202224"/>
</symbol><symbol viewBox="0 0 24 24" id="ue917-navigation=below">
<path d="M7.41 8.58L12 13.17L16.59 8.58L18 10L12 16L6 10L7.41 8.58Z" fill="#202224"/>
</symbol></svg>